<svg width="40" height="40" viewBox="0 0 40 40" fill="none" xmlns="http://www.w3.org/2000/svg">
<path d="M39.8307 17.3913H22.6088H22.6087V0.169297C21.7548 0.058125 20.8841 0 20 0C19.1157 0 18.2452 0.058125 17.3913 0.169297V17.3912V17.3913H0.169297C0.058125 18.2452 0 19.1159 0 20C0 20.8843 0.058125 21.7548 0.169297 22.6087H17.3912H17.3913V39.8307C18.2452 39.9419 19.1157 40 20 40C20.8841 40 21.7548 39.942 22.6087 39.8307V22.6088V22.6087H39.8307C39.9419 21.7548 40 20.8843 40 20C40 19.1159 39.9419 18.2452 39.8307 17.3913Z" fill="#D80027"/>
<path d="M25.2173 25.2175L34.142 34.1422C34.5524 33.7319 34.944 33.3029 35.3176 32.8582L27.6768 25.2174H25.2173V25.2175Z" fill="#D80027"/>
<path d="M14.7822 25.2175H14.782L5.85742 34.1421C6.26773 34.5526 6.69672 34.9442 7.14141 35.3178L14.7822 27.6768V25.2175Z" fill="#D80027"/>
<path d="M14.7829 14.7827V14.7826L5.85824 5.85779C5.44777 6.2681 5.05621 6.69709 4.68262 7.14177L12.3235 14.7826H14.7829V14.7827Z" fill="#D80027"/>
<path d="M25.2173 14.7828L34.142 5.85792C33.7317 5.44745 33.3028 5.05589 32.8581 4.68237L25.2173 12.3232V14.7828Z" fill="#D80027"/>
</svg>
